Coordinates
version=1
nRows=16
nColumns=40
inDegrees=yes

Units are S.I. units (second, meters, Newtons, ...)
If the header above contains a line with 'inDegrees', this indicates whether rotational values are in degrees (yes) or radians (no).

endheader
time	pelvis_tilt	pelvis_list	pelvis_rotation	pelvis_tx	pelvis_ty	pelvis_tz	hip_flexion_r	hip_adduction_r	hip_rotation_r	knee_angle_r	knee_angle_r_beta	ankle_angle_r	subtalar_angle_r	mtp_angle_r	hip_flexion_l	hip_adduction_l	hip_rotation_l	knee_angle_l	knee_angle_l_beta	ankle_angle_l	subtalar_angle_l	mtp_angle_l	lumbar_extension	lumbar_bending	lumbar_rotation	arm_flex_r	arm_add_r	arm_rot_r	elbow_flex_r	pro_sup_r	wrist_flex_r	wrist_dev_r	arm_flex_l	arm_add_l	arm_rot_l	elbow_flex_l	pro_sup_l	wrist_flex_l	wrist_dev_l
      7.20500000	    -24.72712695	     -0.83908498	      4.56380979	     -0.47578144	      0.67486552	     -0.88598737	     83.27014319	    -19.79654552	     -5.87151661	     98.81873651	      1.72471231	     42.64030790	      0.00000000	      0.00000000	     87.40672142	    -22.47404302	     -7.79175829	     96.41846934	      1.68281975	     31.74196647	      0.00000000	      0.00000000	    -28.59879071	     -2.19176853	     -0.67566643	     33.10599027	    -52.94933384	     89.66416184	    103.33293333	     88.64808820	      0.00000000	      0.00000000	     30.61786891	    -56.89971410	     89.69152355	    111.04493915	     88.61464603	      0.00000000	      0.00000000
      7.21000000	    -24.88802387	     -0.86225074	      4.48982752	     -0.47540524	      0.67695588	     -0.88609976	     83.16353983	    -19.65593225	     -5.92780806	     98.41564040	      1.71767696	     42.57993182	      0.00000000	      0.00000000	     87.28503250	    -22.39331950	     -7.81504843	     96.04449352	      1.67629264	     31.69850615	      0.00000000	      0.00000000	    -28.29820281	     -2.14091006	     -0.59799357	     33.16809782	    -52.95151754	     89.66170169	    103.34014634	     88.64599797	      0.00000000	      0.00000000	     30.61702616	    -56.84985170	     89.68982879	    111.02295856	     88.61510438	      0.00000000	      0.00000000
      7.21500000	    -24.42137814	     -0.77796806	      4.55737208	     -0.47365721	      0.68128229	     -0.88671462	     82.15160204	    -19.77960178	     -6.07957068	     97.88334077	      1.70838658	     42.50880548	      0.00000000	      0.00000000	     86.20774590	    -22.17226006	     -7.99647357	     95.53083059	      1.66732753	     31.73429780	      0.00000000	      0.00000000	    -28.69159378	     -2.06542223	     -0.51013156	     33.14143754	    -52.81890751	     89.65929217	    102.88586887	     88.64324130	      0.00000000	      0.00000000	     30.87012092	    -56.43801027	     89.69209968	    110.46692230	     88.61063001	      0.00000000	      0.00000000
      7.22000000	    -24.54595720	     -0.77994783	      4.54576398	     -0.47313203	      0.68387137	     -0.88696994	     81.95790800	    -19.68602144	     -6.10006008	     97.40053206	      1.69995998	     42.42847218	      0.00000000	      0.00000000	     85.98282271	    -21.99401746	     -8.03721426	     95.08201003	      1.65949413	     31.69671757	      0.00000000	      0.00000000	    -28.38013965	     -2.00065813	     -0.46321172	     33.20295677	    -52.78077683	     89.66031314	    102.81449587	     88.64107212	      0.00000000	      0.00000000	     30.97376204	    -56.36750209	     89.68965102	    110.42208241	     88.61011499	      0.00000000	      0.00000000
      7.22500000	    -24.74242758	     -0.73950047	      4.45464765	     -0.47253130	      0.68628391	     -0.88709185	     81.87420353	    -19.54941560	     -6.08276552	     96.93628873	      1.69185740	     42.32274053	      0.00000000	      0.00000000	     85.80821802	    -21.86005447	     -8.08632033	     94.64228950	      1.65181956	     31.65136820	      0.00000000	      0.00000000	    -27.92612719	     -2.01840214	     -0.36702299	     33.21362045	    -52.70180479	     89.66048624	    102.65668862	     88.63936760	      0.00000000	      0.00000000	     31.07012318	    -56.26221042	     89.69034038	    110.30687764	     88.60768756	      0.00000000	      0.00000000
      7.23000000	    -24.72456139	     -1.06191512	      4.40160392	     -0.47154056	      0.68971326	     -0.88662730	     81.30344075	    -19.18278708	     -6.41377699	     96.32929097	      1.68126329	     42.11969452	      0.00000000	      0.00000000	     85.51001470	    -21.88888258	     -7.83061323	     94.06188700	      1.64168963	     31.57245298	      0.00000000	      0.00000000	    -27.67534611	     -1.70429693	     -0.15590503	     33.28209642	    -52.49791286	     89.65220820	    102.36013610	     88.62884603	      0.00000000	      0.00000000	     31.17225097	    -56.13450577	     89.68355986	    110.02405730	     88.60196488	      0.00000000	      0.00000000
      7.23500000	    -24.79524277	     -1.02231908	      3.89539209	     -0.47083230	      0.69262110	     -0.88565812	     81.06202235	    -18.55235872	     -6.41006209	     95.74161120	      1.67100635	     41.98730625	      0.00000000	      0.00000000	     85.19262480	    -22.21864037	     -7.82842016	     93.66325534	      1.63473219	     31.52719874	      0.00000000	      0.00000000	    -27.27887963	     -1.92376174	      0.28974039	     33.33925189	    -52.29512854	     89.65660589	    102.06392368	     88.62744803	      0.00000000	      0.00000000	     31.31360615	    -56.06263374	     89.68484339	    109.80605611	     88.59539792	      0.00000000	      0.00000000
      7.24000000	    -24.66519667	     -1.09362130	      4.02121538	     -0.46901657	      0.69631351	     -0.88647107	     80.39728864	    -18.59247473	     -6.53638149	     95.20833829	      1.66169898	     41.87103713	      0.00000000	      0.00000000	     84.58535006	    -21.91285483	     -7.83562439	     93.17382700	      1.62619006	     31.45206442	      0.00000000	      0.00000000	    -27.05916048	     -1.67939060	      0.34401274	     33.17511335	    -52.20670648	     89.64165226	    101.64986276	     88.62524152	      0.00000000	      0.00000000	     31.32722189	    -55.67338443	     89.67695429	    109.42526911	     88.58850124	      0.00000000	      0.00000000
      7.24500000	    -24.25632090	     -1.56577734	      4.01665542	     -0.46701026	      0.70019318	     -0.88645248	     79.22564522	    -18.40011592	     -7.30252749	     94.64293926	      1.65183090	     42.02789717	      0.00000000	      0.00000000	     83.99883918	    -21.92569888	     -7.30580574	     92.82631979	      1.62012491	     31.57991250	      0.00000000	      0.00000000	    -27.04540020	     -1.11607963	      0.70463319	     33.10734653	    -52.10156802	     89.64111745	    101.16216515	     88.61567568	      0.00000000	      0.00000000	     31.50159110	    -55.30250001	     89.68725567	    108.86033505	     88.59805804	      0.00000000	      0.00000000
      7.25000000	    -24.23186898	     -1.60924730	      3.82006252	     -0.46565928	      0.70377781	     -0.88602898	     78.74898757	    -18.04829603	     -7.39102837	     94.02928177	      1.64112056	     41.85552751	      0.00000000	      0.00000000	     83.49122938	    -21.92481656	     -7.24693998	     92.24249938	      1.60993532	     31.48341916	      0.00000000	      0.00000000	    -26.66426449	     -1.12035066	      0.89761890	     33.10834497	    -51.86392652	     89.62729283	    100.91793812	     88.60347499	      0.00000000	      0.00000000	     31.54411307	    -55.22358241	     89.67536986	    108.66536518	     88.58837750	      0.00000000	      0.00000000
      7.25500000	    -24.25301680	     -1.53918177	      3.72630737	     -0.46425431	      0.70699363	     -0.88622652	     78.36498351	    -17.88790036	     -7.33769406	     93.46162238	      1.63121303	     41.73042055	      0.00000000	      0.00000000	     83.01785132	    -21.78867711	     -7.34705145	     91.75486019	      1.60142442	     31.44059132	      0.00000000	      0.00000000	    -26.13536386	     -1.14492247	      1.01568874	     33.02961183	    -51.69144407	     89.62581072	    100.48034685	     88.59498434	      0.00000000	      0.00000000	     31.60916463	    -55.00369536	     89.67223446	    108.30727060	     88.57434052	      0.00000000	      0.00000000
      7.26000000	    -24.27361874	     -1.33012602	      3.20184545	     -0.46304076	      0.71071333	     -0.88544676	     78.08209602	    -17.25244720	     -7.04242927	     92.81006772	      1.61984126	     41.57213716	      0.00000000	      0.00000000	     82.35672059	    -22.06731739	     -7.64853078	     91.20686935	      1.59186017	     31.29748992	      0.00000000	      0.00000000	    -25.64054405	     -1.51504137	      1.42901530	     33.03281290	    -51.37927221	     89.62342214	     99.88114640	     88.58245290	      0.00000000	      0.00000000	     31.73680922	    -54.82365856	     89.67549593	    107.83384047	     88.56542908	      0.00000000	      0.00000000
      7.26500000	    -23.26084243	     -2.12572566	      3.68818551	     -0.45924034	      0.71631494	     -0.88665575	     75.84276453	    -17.46338580	     -8.34630638	     92.14308417	      1.60820020	     41.77554180	      0.00000000	      0.00000000	     81.13282438	    -21.68939479	     -6.76103473	     90.75011464	      1.58388830	     31.46615363	      0.00000000	      0.00000000	    -26.07706290	     -0.34319021	      1.55638900	     32.83821124	    -51.27389204	     89.60692082	     99.22047370	     88.56818464	      0.00000000	      0.00000000	     31.76389684	    -54.19827525	     89.67115833	    107.02567510	     88.56469281	      0.00000000	      0.00000000
      7.27000000	    -23.36364617	     -2.45880562	      3.68791392	     -0.45841726	      0.71999846	     -0.88590847	     75.38265148	    -17.01020986	     -8.61509491	     91.39964507	      1.59522474	     41.59170007	      0.00000000	      0.00000000	     80.94419516	    -21.59073557	     -6.39574593	     90.02027774	      1.57115024	     31.31775844	      0.00000000	      0.00000000	    -25.43349537	     -0.02567837	      1.67749531	     32.85076786	    -51.00957019	     89.58801592	     99.01284403	     88.55589555	      0.00000000	      0.00000000	     31.88749571	    -54.21564952	     89.66156158	    106.86718231	     88.55323109	      0.00000000	      0.00000000
      7.27500000	    -23.42512291	     -2.35249197	      3.42551021	     -0.45695885	      0.72376566	     -0.88583563	     75.01311621	    -16.74757157	     -8.63163966	     90.67550211	      1.58258606	     41.43642326	      0.00000000	      0.00000000	     80.45305104	    -21.47012138	     -6.36388502	     89.47852283	      1.56169483	     31.18737407	      0.00000000	      0.00000000	    -24.76326996	     -0.14106069	      1.94532225	     32.74924766	    -50.83854048	     89.58744885	     98.56025042	     88.54585203	      0.00000000	      0.00000000	     31.92325500	    -53.96280439	     89.64541139	    106.50792628	     88.53736196	      0.00000000	      0.00000000
      7.28000000	    -22.52854393	     -3.03655299	      3.50730892	     -0.45321382	      0.72942871	     -0.88602373	     73.03043044	    -16.40671845	     -9.60558303	     89.91712985	      1.56934997	     41.43759181	      0.00000000	      0.00000000	     79.23202686	    -21.62918042	     -5.74801458	     89.01486444	      1.55360247	     31.26092740	      0.00000000	      0.00000000	    -24.93386991	      0.71002056	      2.33881360	     32.53966104	    -50.52236825	     89.56441308	     97.46762329	     88.51890182	      0.00000000	      0.00000000	     31.95283182	    -53.33004235	     89.65225638	    105.43741641	     88.52219948	      0.00000000	      0.00000000
